<svg xmlns="http://www.w3.org/2000/svg" viewBox="50.00 50.00 1517.67 900.00">
  <title>Z-Plot Industries lockup, dark</title>
  <path id="body" fill="#162B5E" fill-rule="evenodd" d="M 618.63 59.54 L 592.17 50.00 L 515.40 99.01 L 440.80 209.18 L 408.27 154.10 L 317.18 133.28 L 214.82 182.72 L 173.18 272.94 L 162.77 332.80 L 59.98 551.40 L 50.00 694.53 L 143.25 810.77 L 103.35 950.00 L 248.22 855.01 L 281.18 800.36 L 366.63 747.45 L 329.33 723.59 L 404.36 665.47 L 434.29 586.10 L 345.81 538.82 L 448.60 459.45 L 467.25 405.66 L 442.96 386.58 L 462.05 372.70 L 527.98 261.23 Z"/>
  <path id="shadow-1" fill="#091435" fill-rule="evenodd" d="M 321.52 727.93 L 284.65 756.55 L 303.73 751.35 L 322.39 736.17 Z"/>
  <path id="shadow-2" fill="#091435" fill-rule="evenodd" d="M 297.23 648.12 L 202.67 710.14 L 125.04 767.83 L 238.24 727.49 L 237.81 722.29 Z"/>
  <path id="shadow-3" fill="#091435" fill-rule="evenodd" d="M 354.05 526.67 L 345.81 524.51 L 344.07 529.28 L 338.87 528.84 L 334.53 535.35 L 300.27 553.13 L 299.40 557.47 L 288.12 560.94 L 198.77 620.36 L 202.67 622.53 L 342.34 541.42 Z"/>
  <path id="shadow-4" fill="#091435" fill-rule="evenodd" d="M 456.84 354.05 L 449.47 353.18 L 236.94 482.43 L 250.39 481.57 L 438.63 390.05 L 440.36 383.11 L 456.84 373.57 Z"/>
  <path id="shadow-5" fill="#091435" fill-rule="evenodd" d="M 170.14 297.23 L 171.01 311.54 L 167.11 312.84 L 169.71 317.18 L 163.20 333.66 L 176.22 362.29 L 267.30 337.13 Z"/>
  <path id="shadow-6" fill="#091435" fill-rule="evenodd" d="M 426.48 189.23 L 416.94 192.70 L 415.64 207.88 L 429.08 216.12 L 417.81 261.23 L 410.00 269.04 L 398.72 272.07 L 359.69 298.53 L 269.47 333.23 L 278.58 334.10 L 292.46 326.72 L 421.28 292.02 L 442.96 234.34 L 439.06 211.78 L 425.61 196.60 Z"/>
  <path id="steel-1" fill="#223A75" fill-rule="evenodd" d="M 276.84 800.36 L 207.88 788.22 L 120.27 901.42 L 107.25 943.93 L 248.65 851.98 Z"/>
  <path id="steel-2" fill="#223A75" fill-rule="evenodd" d="M 309.37 749.61 L 344.07 754.82 L 354.92 742.24 L 329.76 731.40 Z"/>
  <path id="steel-3" fill="#223A75" fill-rule="evenodd" d="M 237.81 769.57 L 295.93 790.39 L 328.02 762.63 L 302.87 752.65 L 276.84 761.33 L 280.75 750.92 L 265.13 750.92 L 264.70 747.01 L 284.22 744.84 L 281.61 737.47 L 274.67 740.94 L 276.41 733.57 L 268.17 735.73 L 253.42 730.53 L 248.22 744.41 L 264.70 747.01 L 245.18 752.22 Z"/>
  <path id="steel-4" fill="#223A75" fill-rule="evenodd" d="M 409.57 574.82 L 354.92 610.82 L 380.51 634.24 L 393.95 667.20 L 403.93 662.00 L 431.25 588.70 Z"/>
  <path id="steel-5" fill="#223A75" fill-rule="evenodd" d="M 63.45 560.51 L 52.60 694.10 L 138.92 658.96 Z"/>
  <path id="steel-6" fill="#223A75" fill-rule="evenodd" d="M 463.78 405.23 L 437.33 392.22 L 342.77 441.23 L 463.35 410.43 Z"/>
  <path id="steel-7" fill="#223A75" fill-rule="evenodd" d="M 161.47 338.87 L 151.93 366.19 L 186.63 482.87 L 279.01 435.59 L 280.31 431.69 L 263.40 417.37 L 184.46 365.76 L 175.78 364.02 Z"/>
  <path id="mid-1" fill="#3A61AF" fill-rule="evenodd" d="M 404.36 571.78 L 342.34 543.59 L 275.11 585.23 L 350.14 609.95 Z"/>
  <path id="mid-2" fill="#3A61AF" fill-rule="evenodd" d="M 150.19 368.80 L 146.29 369.23 L 66.92 544.02 L 184.46 485.04 Z"/>
  <path id="mid-3" fill="#3A61AF" fill-rule="evenodd" d="M 518.43 264.27 L 379.64 307.64 L 379.20 340.60 L 391.78 365.76 L 390.92 374.00 L 397.42 377.47 L 409.13 374.43 L 459.45 344.94 L 499.35 295.49 L 508.02 278.14 L 519.30 269.47 Z"/>
  <path id="light-1" fill="#6C91D1" fill-rule="evenodd" d="M 240.84 725.76 L 211.78 786.05 L 274.24 797.33 L 290.72 792.99 L 234.77 770.87 L 245.61 733.57 L 245.18 725.76 Z"/>
  <path id="light-2" fill="#6C91D1" fill-rule="evenodd" d="M 347.11 610.39 L 269.90 586.53 L 144.55 657.66 L 205.28 707.11 Z"/>
  <path id="light-3" fill="#6C91D1" fill-rule="evenodd" d="M 373.13 311.54 L 187.93 361.86 L 291.59 434.29 L 63.01 550.10 L 141.08 654.19 L 353.61 516.70 L 234.34 479.40 L 395.69 380.94 Z"/>
  <path id="amber-1" fill="#FBAC0A" fill-rule="evenodd" d="M 409.57 168.84 L 368.36 158.00 L 285.52 206.14 L 256.46 256.46 L 364.89 183.59 L 413.04 198.77 L 416.07 189.23 Z"/>
  <path id="cream-1" fill="#EDF1EE" fill-rule="evenodd" d="M 425.61 216.99 L 407.40 208.75 L 410.87 199.20 L 401.76 195.73 L 370.96 236.07 L 320.22 262.10 L 377.47 282.48 L 413.47 262.10 Z"/>
  <path id="wordmark" fill="#FFFFFF" d="M770.3505479452054 533.5V502.41506849315067L873.0327397260274 378.0753424657534L873.5423287671233 383.42602739726027L865.8984931506849 373.23424657534247L870.9943835616439 377.3109589041096H773.4080821917809V347.5H913.0354794520548V378.58493150684933L810.0984931506849 502.6698630136986L809.3341095890411 496.8095890410959L817.7423287671232 508.2753424657534L811.6272602739726 503.6890410958904H914.3094520547945V533.5Z M934.4509589041096 477.44520547945206V446.3602739726027H1037.6427397260275V477.44520547945206Z M1101.863698630137 476.42602739726027V445.086301369863H1138.0445205479452Q1149.0006849315068 445.086301369863 1156.5171232876712 440.75479452054793Q1164.0335616438356 436.42328767123286 1167.9828767123286 428.77945205479455Q1171.9321917808218 421.1356164383562 1171.9321917808218 411.1986301369863Q1171.9321917808218 401.26164383561644 1167.9828767123286 393.6178082191781Q1164.0335616438356 385.97397260273976 1156.5171232876712 381.7698630136986Q1149.0006849315068 377.5657534246575 1138.0445205479452 377.5657534246575H1101.863698630137V346.2260273972603H1134.9869863013698Q1158.4280821917807 346.2260273972603 1174.8623287671232 353.86986301369865Q1191.2965753424658 361.513698630137 1199.959589041096 375.65479452054797Q1208.622602739726 389.7958904109589 1208.622602739726 409.16027397260274V413.2369863013698Q1208.622602739726 432.6013698630137 1199.959589041096 446.74246575342465Q1191.2965753424658 460.8835616438356 1174.8623287671232 468.65479452054797Q1158.4280821917807 476.42602739726027 1134.9869863013698 476.42602739726027ZM1070.7787671232877 533.5V346.2260273972603H1106.9595890410958V533.5Z M1234.6243835616438 533.5V347.5H1270.0408219178082V533.5ZM1217.2983561643837 373.9986301369863V347.5H1270.0408219178082V373.9986301369863Z M1374.264520547945 538.341095890411Q1355.919315068493 538.341095890411 1341.905616438356 532.4808219178083Q1327.8919178082192 526.6205479452054 1318.2097260273972 516.5561643835616Q1308.5275342465752 506.4917808219178 1303.5590410958903 493.7520547945205Q1298.5905479452053 481.0123287671233 1298.5905479452053 467.25342465753425V461.9027397260274Q1298.5905479452053 447.63424657534244 1303.8138356164382 434.7671232876712Q1309.0371232876712 421.9 1318.846712328767 411.83561643835617Q1328.6563013698628 401.77123287671236 1342.6699999999998 396.0383561643836Q1356.6836986301369 390.3054794520548 1374.264520547945 390.3054794520548Q1391.8453424657532 390.3054794520548 1405.8590410958902 396.0383561643836Q1419.8727397260272 401.77123287671236 1429.6823287671232 411.83561643835617Q1439.4919178082191 421.9 1444.587808219178 434.7671232876712Q1449.6836986301369 447.63424657534244 1449.6836986301369 461.9027397260274V467.25342465753425Q1449.6836986301369 481.0123287671233 1444.715205479452 493.7520547945205Q1439.746712328767 506.4917808219178 1430.064520547945 516.5561643835616Q1420.3823287671232 526.6205479452054 1406.3686301369862 532.4808219178083Q1392.3549315068492 538.341095890411 1374.264520547945 538.341095890411ZM1374.264520547945 508.02054794520546Q1387.2590410958903 508.02054794520546 1396.1768493150685 502.28767123287673Q1405.0946575342464 496.55479452054794 1409.6809589041095 486.74520547945207Q1414.2672602739726 476.9356164383562 1414.2672602739726 464.4506849315068Q1414.2672602739726 451.7109589041096 1409.5535616438356 441.9013698630137Q1404.8398630136985 432.09178082191784 1395.7946575342464 426.35890410958905Q1386.7494520547943 420.62602739726026 1374.264520547945 420.62602739726026Q1361.7795890410957 420.62602739726026 1352.7343835616437 426.35890410958905Q1343.6891780821916 432.09178082191784 1338.8480821917806 441.9013698630137Q1334.0069863013698 451.7109589041096 1334.0069863013698 464.4506849315068Q1334.0069863013698 476.9356164383562 1338.7206849315066 486.74520547945207Q1343.4343835616437 496.55479452054794 1352.3521917808218 502.28767123287673Q1361.27 508.02054794520546 1374.264520547945 508.02054794520546Z M1538.1101369863013 535.2835616438356Q1519.0005479452054 535.2835616438356 1506.64301369863 530.3150684931506Q1494.2854794520547 525.3465753424657 1488.170410958904 513.4986301369863Q1482.0553424657533 501.6506849315069 1482.0553424657533 481.5219178082192L1482.3101369863011 356.16301369863015H1515.433424657534L1515.1786301369862 483.8150684931507Q1515.1786301369862 494.0068493150685 1520.6567123287668 499.4849315068493Q1526.1347945205478 504.9630136986301 1536.3265753424657 504.9630136986301H1557.984109589041V535.2835616438356ZM1460.14301369863 421.1356164383562V395.1465753424658H1557.984109589041V421.1356164383562Z"/>
  <path id="descriptor" fill="#6C91D1" d="M767.8080821917808 652.5V585.5H778.8217808219179V652.5Z M822.1818264840183 652.5V585.5H840.1708675799088L871.2845662100457 643.0465753424658H874.3133333333334L872.4777168949772 644.6986301369863V585.5H882.9407305936073V652.5H864.7681278538813L833.6544292237444 594.9534246575342H830.6256621004567L832.4612785388128 593.3013698630137V652.5Z M935.2952968036531 652.8671232876712V642.6794520547945H950.622694063927Q956.2213242009134 642.6794520547945 960.6268036529682 640.8897260273973Q965.0322831050229 639.1 968.1528310502283 635.8876712328768Q971.2733789954339 632.6753424657534 972.8795433789955 628.3157534246575Q974.4857077625571 623.9561643835616 974.4857077625571 618.9082191780822Q974.4857077625571 613.4931506849315 972.8795433789955 609.1794520547945Q971.2733789954339 604.8657534246576 968.1528310502283 601.7452054794521Q965.0322831050229 598.6246575342466 960.6268036529682 596.926712328767Q956.2213242009134 595.2287671232876 950.622694063927 595.2287671232876H935.2952968036531V585.0410958904109H949.704885844749Q958.791187214612 585.0410958904109 965.5370776255709 587.7945205479452Q972.2829680365298 590.5479452054794 976.7802283105025 595.2287671232876Q981.277488584475 599.9095890410958 983.4802283105024 605.7835616438356Q985.6829680365298 611.6575342465753 985.6829680365298 617.8986301369863V619.9178082191781Q985.6829680365298 625.7917808219178 983.4802283105024 631.7116438356164Q981.277488584475 637.6315068493151 976.7802283105025 642.3582191780822Q972.2829680365298 647.0849315068493 965.5370776255709 649.9760273972603Q958.791187214612 652.8671232876712 949.704885844749 652.8671232876712ZM926.1172146118722 652.8671232876712V585.0410958904109H937.1309132420092V652.8671232876712Z M1050.703287671233 654.1520547945205Q1041.4334246575345 654.1520547945205 1035.1464383561647 650.6184931506849Q1028.8594520547947 647.0849315068493 1025.6012328767124 640.6602739726027Q1022.3430136986303 634.2356164383561 1022.3430136986303 625.7V585.5H1033.3567123287673V626.6178082191781Q1033.3567123287673 631.7575342465753 1035.375890410959 635.7041095890411Q1037.3950684931508 639.6506849315068 1041.2498630136988 641.8075342465753Q1045.1046575342468 643.9643835616438 1050.703287671233 643.9643835616438Q1056.3019178082193 643.9643835616438 1060.1108219178084 641.8534246575342Q1063.9197260273975 639.7424657534247 1065.9389041095892 635.7958904109589Q1067.958082191781 631.8493150684932 1067.958082191781 626.6178082191781V585.5H1078.971780821918V625.7Q1078.971780821918 634.2356164383561 1075.7594520547946 640.6602739726027Q1072.5471232876714 647.0849315068493 1066.2601369863014 650.6184931506849Q1059.9731506849316 654.1520547945205 1050.703287671233 654.1520547945205Z M1143.166073059361 654.1520547945205Q1134.538675799087 654.1520547945205 1128.5270319634706 651.3527397260274Q1122.515388127854 648.5534246575343 1119.3948401826487 643.6431506849315Q1116.2742922374432 638.7328767123288 1116.2742922374432 632.4917808219178H1127.1044292237445Q1127.1044292237445 635.3369863013698 1128.6647031963473 638.0904109589042Q1130.22497716895 640.8438356164384 1133.7126484018268 642.6335616438356Q1137.2003196347034 644.4232876712329 1143.166073059361 644.4232876712329Q1148.5811415525118 644.4232876712329 1152.1147031963474 642.8630136986301Q1155.648264840183 641.3027397260274 1157.3462100456622 638.7328767123288Q1159.0441552511418 636.1630136986302 1159.0441552511418 633.0424657534246Q1159.0441552511418 629.1876712328767 1155.7400456621008 626.7554794520547Q1152.4359360730596 624.3232876712328 1145.8277168949774 623.772602739726L1139.1277168949775 623.1301369863014Q1129.8578538812787 622.3958904109589 1124.3510045662101 617.3938356164383Q1118.8441552511417 612.3917808219178 1118.8441552511417 604.2232876712329Q1118.8441552511417 597.982191780822 1121.8270319634705 593.3931506849315Q1124.8099086757993 588.8041095890411 1130.2249771689499 586.1883561643835Q1135.6400456621006 583.572602739726 1142.7989497716899 583.572602739726Q1150.1414155251143 583.572602739726 1155.556484018265 586.1883561643835Q1160.971552511416 588.8041095890411 1163.9544292237447 593.5308219178082Q1166.9373059360732 598.2575342465753 1166.9373059360732 604.7739726027397H1156.107168949772Q1156.107168949772 601.8369863013698 1154.684566210046 599.2212328767123Q1153.2619634703199 596.6054794520549 1150.32497716895 594.9534246575342Q1147.3879908675801 593.3013698630137 1142.7989497716899 593.3013698630137Q1138.393470319635 593.3013698630137 1135.5023744292241 594.8616438356164Q1132.6112785388132 596.4219178082192 1131.1427853881282 598.9Q1129.6742922374433 601.3780821917808 1129.6742922374433 604.2232876712329Q1129.6742922374433 607.6191780821918 1132.2441552511418 610.2349315068493Q1134.8140182648403 612.8506849315069 1140.1373059360733 613.3095890410959L1146.7455251141555 613.8602739726027Q1153.8126484018267 614.4109589041096 1158.9982648401829 616.8431506849315Q1164.183881278539 619.2753424657534 1167.07497716895 623.313698630137Q1169.966073059361 627.3520547945205 1169.966073059361 633.0424657534246Q1169.966073059361 639.2835616438356 1166.616073059361 644.0561643835616Q1163.266073059361 648.8287671232877 1157.2544292237444 651.490410958904Q1151.2427853881281 654.1520547945205 1143.166073059361 654.1520547945205Z M1221.7699543379 652.5V593.3931506849315H1232.7836529680367V652.5ZM1201.9452968036533 595.2287671232876V585.5H1252.7000913242011V595.2287671232876Z M1289.0847945205483 652.5V585.0410958904109H1300.0984931506853V652.5ZM1330.2026027397262 652.5 1308.9094520547947 623.0383561643836H1321.3916438356166L1343.3272602739728 652.5ZM1296.5190410958905 629.1876712328767V619.9178082191781H1313.9573972602743Q1317.90397260274 619.9178082191781 1320.749178082192 618.3116438356165Q1323.594383561644 616.7054794520548 1325.1087671232879 613.8602739726027Q1326.6231506849317 611.0150684931507 1326.6231506849317 607.2520547945205Q1326.6231506849317 603.5808219178082 1325.1087671232879 600.7356164383561Q1323.594383561644 597.8904109589041 1320.749178082192 596.2383561643835Q1317.90397260274 594.586301369863 1313.9573972602743 594.586301369863H1296.5190410958905V585.0410958904109H1312.4889041095894Q1320.1984931506852 585.0410958904109 1325.8889041095892 587.381506849315Q1331.5793150684933 589.7219178082191 1334.6998630136989 594.4027397260274Q1337.8204109589044 599.0835616438357 1337.8204109589044 606.4260273972603V607.8945205479451Q1337.8204109589044 615.2369863013698 1334.65397260274 619.9178082191781Q1331.4875342465755 624.5986301369863 1325.8430136986303 626.8931506849315Q1320.1984931506852 629.1876712328767 1312.4889041095894 629.1876712328767Z M1379.620182648402 652.5V585.5H1390.633881278539V652.5Z M1433.9939269406398 652.5V585.5H1444.915844748859V652.5ZM1443.0802283105027 652.5V642.9547945205479H1474.469269406393V652.5ZM1443.0802283105027 623.2219178082191V613.6767123287672H1471.8994063926946V623.2219178082191ZM1443.0802283105027 595.0452054794521V585.5H1473.6432420091328V595.0452054794521Z M1536.369041095891 654.1520547945205Q1527.741643835617 654.1520547945205 1521.7300000000005 651.3527397260274Q1515.718356164384 648.5534246575343 1512.5978082191787 643.6431506849315Q1509.4772602739731 638.7328767123288 1509.4772602739731 632.4917808219178H1520.3073972602745Q1520.3073972602745 635.3369863013698 1521.8676712328772 638.0904109589042Q1523.42794520548 640.8438356164384 1526.9156164383567 642.6335616438356Q1530.4032876712333 644.4232876712329 1536.369041095891 644.4232876712329Q1541.7841095890417 644.4232876712329 1545.3176712328773 642.8630136986301Q1548.8512328767129 641.3027397260274 1550.5491780821922 638.7328767123288Q1552.2471232876717 636.1630136986302 1552.2471232876717 633.0424657534246Q1552.2471232876717 629.1876712328767 1548.9430136986307 626.7554794520547Q1545.6389041095895 624.3232876712328 1539.0306849315073 623.772602739726L1532.3306849315074 623.1301369863014Q1523.0608219178087 622.3958904109589 1517.55397260274 617.3938356164383Q1512.0471232876716 612.3917808219178 1512.0471232876716 604.2232876712329Q1512.0471232876716 597.982191780822 1515.0300000000004 593.3931506849315Q1518.0128767123292 588.8041095890411 1523.4279452054798 586.1883561643835Q1528.8430136986306 583.572602739726 1536.0019178082198 583.572602739726Q1543.3443835616442 583.572602739726 1548.759452054795 586.1883561643835Q1554.1745205479458 588.8041095890411 1557.1573972602746 593.5308219178082Q1560.1402739726032 598.2575342465753 1560.1402739726032 604.7739726027397H1549.3101369863018Q1549.3101369863018 601.8369863013698 1547.8875342465758 599.2212328767123Q1546.4649315068498 596.6054794520549 1543.52794520548 594.9534246575342Q1540.59095890411 593.3013698630137 1536.0019178082198 593.3013698630137Q1531.596438356165 593.3013698630137 1528.705342465754 594.8616438356164Q1525.814246575343 596.4219178082192 1524.3457534246581 598.9Q1522.8772602739732 601.3780821917808 1522.8772602739732 604.2232876712329Q1522.8772602739732 607.6191780821918 1525.4471232876717 610.2349315068493Q1528.0169863013703 612.8506849315069 1533.3402739726032 613.3095890410959L1539.9484931506854 613.8602739726027Q1547.0156164383566 614.4109589041096 1552.2012328767128 616.8431506849315Q1557.386849315069 619.2753424657534 1560.27794520548 623.313698630137Q1563.1690410958909 627.3520547945205 1563.1690410958909 633.0424657534246Q1563.1690410958909 639.2835616438356 1559.819041095891 644.0561643835616Q1556.4690410958908 648.8287671232877 1550.4573972602743 651.490410958904Q1544.445753424658 654.1520547945205 1536.369041095891 654.1520547945205Z"/>
</svg>
